<svg width="32" height="32" viewBox="0 0 32 32" fill="none" xmlns="http://www.w3.org/2000/svg">
<rect x="13" y="11" width="13" height="14" fill="white"/>
<path d="M13.8445 23.5283H24.7029V12.33H13.8445V23.5283ZM27.7605 25.7724C27.7605 26.2418 27.3794 26.622 26.9099 26.622H11.6365C11.3113 26.622 11.0142 26.4368 10.8718 26.1445L3.23511 10.4579C3.17879 10.3421 3.15015 10.2147 3.15015 10.0859V5.99994C3.15015 5.5305 3.53031 5.15033 3.99976 5.15033H7.97827C8.03856 5.15033 8.09903 5.15616 8.15796 5.16888L27.0896 9.25482C27.4808 9.33931 27.7604 9.68569 27.7605 10.0859V25.7724Z" fill="#282826" stroke="white" stroke-width="1.7" stroke-linejoin="round"/>
<path d="M22.487 16.7546H19.9765C19.7198 16.7546 19.5319 16.5063 19.5955 16.2505L20.4233 12.9642C20.5277 12.549 20.011 12.275 19.7417 12.6046L15.4014 17.9135C15.1874 18.1757 15.3691 18.5748 15.7031 18.5748H18.2146C18.4713 18.5748 18.6592 18.8231 18.5956 19.0789L17.7678 22.3652C17.6634 22.7805 18.1801 23.0544 18.4494 22.7248L22.7897 17.4159C23.0037 17.1537 22.822 16.7546 22.488 16.7546H22.487Z" fill="#282826"/>
</svg>
